<svg width="100" height="100" viewBox="0 0 100 100" fill="none" xmlns="http://www.w3.org/2000/svg">
<path d="M50.7915 38.542C51.3775 39.1272 52.1717 39.4559 52.9999 39.4559C53.828 39.4559 54.6223 39.1272 55.2082 38.542L59.3749 34.3753C59.8113 33.9383 60.1085 33.3817 60.2289 32.7759C60.3492 32.1701 60.2874 31.5422 60.0511 30.9715C59.8148 30.4008 59.4146 29.9129 58.9012 29.5695C58.3878 29.2261 57.7842 29.0425 57.1665 29.042H48.8332C48.2155 29.0425 47.6119 29.2261 47.0985 29.5695C46.5851 29.9129 46.185 30.4008 45.9487 30.9715C45.7124 31.5422 45.6505 32.1701 45.7708 32.7759C45.8912 33.3817 46.1884 33.9383 46.6249 34.3753L50.7915 38.542ZM50.7915 67.4587C51.3775 66.8734 52.1717 66.5447 52.9999 66.5447C53.828 66.5447 54.6223 66.8734 55.2082 67.4587L59.3749 71.6253C59.8113 72.0623 60.1085 72.6189 60.2289 73.2248C60.3492 73.8306 60.2874 74.4585 60.0511 75.0292C59.8148 75.5999 59.4146 76.0877 58.9012 76.4311C58.3878 76.7745 57.7842 76.9581 57.1665 76.9587H48.8332C48.2155 76.9581 47.6119 76.7745 47.0985 76.4311C46.5851 76.0877 46.185 75.5999 45.9487 75.0292C45.7124 74.4585 45.6505 73.8306 45.7708 73.2248C45.8912 72.6189 46.1884 72.0623 46.6249 71.6253L50.7915 67.4587Z" fill="#069A8E"/>
<path fill-rule="evenodd" clip-rule="evenodd" d="M57.7877 53.0003L58.5668 52.3295C66.7979 45.238 73.6416 36.6806 78.7502 27.092C79.2124 26.2244 79.4525 25.2558 79.449 24.2728C79.4455 23.2898 79.1985 22.323 78.7301 21.4587C78.2616 20.5945 77.5864 19.8598 76.7646 19.3202C75.9429 18.7807 75.0002 18.4532 74.021 18.367L69.1293 17.942C58.397 17.0037 47.6033 17.0037 36.871 17.942L31.9793 18.367C31.0001 18.4532 30.0575 18.7807 29.2357 19.3202C28.414 19.8598 27.7387 20.5945 27.2703 21.4587C26.8018 22.323 26.5548 23.2898 26.5513 24.2728C26.5478 25.2558 26.7879 26.2244 27.2502 27.092C32.3588 36.6806 39.2025 45.2379 47.4335 52.3295L48.2127 53.0003L47.4335 53.6712C39.2017 60.7652 32.358 69.3254 27.2502 78.917C26.7888 79.7844 26.5495 80.7526 26.5534 81.735C26.5574 82.7175 26.8046 83.6837 27.273 84.5473C27.7413 85.411 28.4162 86.1452 29.2375 86.6845C30.0587 87.2238 31.0007 87.5513 31.9793 87.6378L36.871 88.0628C47.6043 89.0045 58.396 89.0045 69.1293 88.0628L74.021 87.6378C74.9997 87.5513 75.9416 87.2238 76.7629 86.6845C77.5841 86.1452 78.259 85.411 78.7274 84.5473C79.1957 83.6837 79.4429 82.7175 79.4469 81.735C79.4509 80.7526 79.2115 79.7844 78.7502 78.917C73.6419 69.3269 66.7983 60.7681 58.5668 53.6753L57.7877 53.0086V53.0003ZM53.0168 48.8586L53.0252 48.8503L54.4877 47.592C62.0159 41.1057 68.2954 33.2983 73.0168 24.5545L68.5835 24.167C58.2144 23.2605 47.7859 23.2605 37.4168 24.167L32.9793 24.5545C37.7017 33.3001 43.9826 41.1089 51.5127 47.5961L52.971 48.8545C52.9749 48.8565 52.9791 48.8579 52.9835 48.8586H53.0002C53.0057 48.8598 53.0113 48.8598 53.0168 48.8586ZM53.0252 57.1503L53.0168 57.142H53.0002C52.9947 57.1409 52.989 57.1409 52.9835 57.142L52.971 57.1503L51.5127 58.4086C43.9827 64.896 37.7018 72.7048 32.9793 81.4503L37.4127 81.8336C47.7877 82.742 58.2127 82.742 68.5835 81.8336L73.0168 81.4461C68.2957 72.7009 62.0162 64.8921 54.4877 58.4045L53.0293 57.1503H53.0252Z" fill="#069A8E"/>
<path d="M47.7915 35.5417C48.3775 36.127 49.1717 36.4557 49.9999 36.4557C50.828 36.4557 51.6223 36.127 52.2082 35.5417L56.3749 31.3751C56.8113 30.9381 57.1085 30.3815 57.2289 29.7756C57.3492 29.1698 57.2874 28.5419 57.0511 27.9712C56.8148 27.4006 56.4146 26.9127 55.9012 26.5693C55.3878 26.2259 54.7842 26.0423 54.1665 26.0417H45.8332C45.2155 26.0423 44.6119 26.2259 44.0985 26.5693C43.5851 26.9127 43.185 27.4006 42.9487 27.9712C42.7124 28.5419 42.6505 29.1698 42.7708 29.7756C42.8912 30.3815 43.1884 30.9381 43.6249 31.3751L47.7915 35.5417ZM47.7915 64.4584C48.3775 63.8732 49.1717 63.5445 49.9999 63.5445C50.828 63.5445 51.6223 63.8732 52.2082 64.4584L56.3749 68.6251C56.8113 69.0621 57.1085 69.6187 57.2289 70.2245C57.3492 70.8303 57.2874 71.4583 57.0511 72.0289C56.8148 72.5996 56.4146 73.0875 55.9012 73.4309C55.3878 73.7743 54.7842 73.9579 54.1665 73.9584H45.8332C45.2155 73.9579 44.6119 73.7743 44.0985 73.4309C43.5851 73.0875 43.185 72.5996 42.9487 72.0289C42.7124 71.4583 42.6505 70.8303 42.7708 70.2245C42.8912 69.6187 43.1884 69.0621 43.6249 68.6251L47.7915 64.4584Z" fill="#000201"/>
<path fill-rule="evenodd" clip-rule="evenodd" d="M54.7877 50.0003L55.5668 49.3295C63.7979 42.238 70.6416 33.6806 75.7502 24.092C76.2124 23.2244 76.4525 22.2558 76.449 21.2728C76.4455 20.2898 76.1985 19.323 75.7301 18.4587C75.2616 17.5945 74.5864 16.8598 73.7646 16.3202C72.9429 15.7807 72.0002 15.4532 71.021 15.367L66.1293 14.942C55.397 14.0037 44.6033 14.0037 33.871 14.942L28.9793 15.367C28.0001 15.4532 27.0575 15.7807 26.2357 16.3202C25.414 16.8598 24.7387 17.5945 24.2703 18.4587C23.8018 19.323 23.5548 20.2898 23.5513 21.2728C23.5478 22.2558 23.7879 23.2244 24.2502 24.092C29.3588 33.6806 36.2025 42.2379 44.4335 49.3295L45.2127 50.0003L44.4335 50.6712C36.2017 57.7652 29.358 66.3254 24.2502 75.917C23.7888 76.7844 23.5495 77.7526 23.5534 78.735C23.5574 79.7175 23.8046 80.6837 24.273 81.5473C24.7413 82.411 25.4162 83.1452 26.2375 83.6845C27.0587 84.2238 28.0007 84.5513 28.9793 84.6378L33.871 85.0628C44.6043 86.0045 55.396 86.0045 66.1293 85.0628L71.021 84.6378C71.9997 84.5513 72.9416 84.2238 73.7629 83.6845C74.5841 83.1452 75.259 82.411 75.7274 81.5473C76.1957 80.6837 76.4429 79.7175 76.4469 78.735C76.4509 77.7526 76.2115 76.7844 75.7502 75.917C70.6419 66.3269 63.7983 57.7681 55.5668 50.6753L54.7877 50.0086V50.0003ZM50.0168 45.8586L50.0252 45.8503L51.4877 44.592C59.0159 38.1057 65.2954 30.2983 70.0168 21.5545L65.5835 21.167C55.2144 20.2605 44.7859 20.2605 34.4168 21.167L29.9793 21.5545C34.7017 30.3001 40.9826 38.1089 48.5127 44.5961L49.971 45.8545C49.9749 45.8565 49.9791 45.8579 49.9835 45.8586H50.0002C50.0057 45.8598 50.0113 45.8598 50.0168 45.8586ZM50.0252 54.1503L50.0168 54.142H50.0002C49.9947 54.1409 49.989 54.1409 49.9835 54.142L49.971 54.1503L48.5127 55.4086C40.9827 61.896 34.7018 69.7048 29.9793 78.4503L34.4127 78.8336C44.7877 79.742 55.2127 79.742 65.5835 78.8336L70.0168 78.4461C65.2957 69.7009 59.0162 61.8921 51.4877 55.4045L50.0293 54.1503H50.0252Z" fill="#000201"/>
</svg>
