<svg width="100" height="100" viewBox="0 0 100 100" fill="none" xmlns="http://www.w3.org/2000/svg">
<path d="M26.9585 25.917C26.9585 23.9831 27.7267 22.1285 29.0942 20.761C30.4616 19.3936 32.3163 18.6253 34.2502 18.6253C36.184 18.6253 38.0387 19.3936 39.4062 20.761C40.7736 22.1285 41.5418 23.9831 41.5418 25.917C41.5418 27.8509 40.7736 29.7055 39.4062 31.073C38.0387 32.4404 36.184 33.2087 34.2502 33.2087C32.3163 33.2087 30.4616 32.4404 29.0942 31.073C27.7267 29.7055 26.9585 27.8509 26.9585 25.917ZM34.2502 13.417C32.6086 13.417 30.9832 13.7403 29.4666 14.3685C27.95 14.9967 26.5721 15.9174 25.4113 17.0782C24.2506 18.2389 23.3299 19.6169 22.7017 21.1334C22.0735 22.65 21.7502 24.2755 21.7502 25.917C21.7502 27.5585 22.0735 29.184 22.7017 30.7005C23.3299 32.2171 24.2506 33.5951 25.4113 34.7558C26.5721 35.9166 27.95 36.8373 29.4666 37.4655C30.9832 38.0937 32.6086 38.417 34.2502 38.417C37.5654 38.417 40.7448 37.1 43.089 34.7558C45.4332 32.4116 46.7502 29.2322 46.7502 25.917C46.7502 22.6018 45.4332 19.4224 43.089 17.0782C40.7448 14.734 37.5654 13.417 34.2502 13.417ZM64.4585 25.917C64.4585 23.9831 65.2267 22.1285 66.5942 20.761C67.9616 19.3936 69.8163 18.6253 71.7502 18.6253C73.684 18.6253 75.5387 19.3936 76.9061 20.761C78.2736 22.1285 79.0418 23.9831 79.0418 25.917C79.0418 27.8509 78.2736 29.7055 76.9061 31.073C75.5387 32.4404 73.684 33.2087 71.7502 33.2087C69.8163 33.2087 67.9616 32.4404 66.5942 31.073C65.2267 29.7055 64.4585 27.8509 64.4585 25.917ZM71.7502 13.417C70.1086 13.417 68.4832 13.7403 66.9666 14.3685C65.45 14.9967 64.0721 15.9174 62.9113 17.0782C61.7506 18.2389 60.8298 19.6169 60.2017 21.1334C59.5735 22.65 59.2502 24.2755 59.2502 25.917C59.2502 27.5585 59.5735 29.184 60.2017 30.7005C60.8298 32.2171 61.7506 33.5951 62.9113 34.7558C64.0721 35.9166 65.45 36.8373 66.9666 37.4655C68.4832 38.0937 70.1086 38.417 71.7502 38.417C75.0654 38.417 78.2448 37.1 80.589 34.7558C82.9332 32.4116 84.2502 29.2322 84.2502 25.917C84.2502 22.6018 82.9332 19.4224 80.589 17.0782C78.2448 14.734 75.0654 13.417 71.7502 13.417ZM11.3335 49.7628C11.3335 48.82 11.5192 47.8865 11.88 47.0155C12.2408 46.1445 12.7696 45.353 13.4362 44.6864C14.1029 44.0197 14.8943 43.4909 15.7653 43.1301C16.6363 42.7694 17.5699 42.5837 18.5127 42.5837H38.5627C37.628 44.1982 36.9729 45.9591 36.6252 47.792H18.5127C18.2538 47.792 17.9976 47.843 17.7585 47.942C17.5193 48.0411 17.3021 48.1862 17.1191 48.3692C16.9361 48.5522 16.7909 48.7695 16.6919 49.0086C16.5928 49.2477 16.5418 49.504 16.5418 49.7628V50.6566C16.5418 51.2191 16.5481 54.6837 18.6647 57.9587C20.5314 60.8503 24.3377 64.042 32.5897 64.4212C30.4403 65.396 28.6465 67.0142 27.4564 69.0524C20.7439 67.7357 16.6647 64.4628 14.2897 60.7857C11.3335 56.2087 11.3335 51.4795 11.3335 50.6607V49.7649V49.7628ZM73.4106 64.4212C75.5601 65.396 77.3538 67.0142 78.5439 69.0524C85.2564 67.7357 89.3356 64.4628 91.7106 60.7857C94.6668 56.2087 94.6668 51.4795 94.6668 50.6607V49.7649C94.6671 48.822 94.4816 47.8882 94.1209 47.0169C93.7603 46.1457 93.2315 45.354 92.5648 44.6871C91.8982 44.0203 91.1066 43.4913 90.2355 43.1303C89.3643 42.7694 88.4306 42.5837 87.4877 42.5837H67.4377C68.3543 44.1732 69.021 45.9274 69.3752 47.792H87.4877C88.5752 47.792 89.4585 48.6753 89.4585 49.7628V50.6566C89.4585 51.2191 89.4522 54.6837 87.3356 57.9587C85.4689 60.8503 81.6627 64.042 73.4106 64.4212ZM53.0002 43.6253C51.0663 43.6253 49.2116 44.3935 47.8442 45.761C46.4767 47.1285 45.7085 48.9831 45.7085 50.917C45.7085 52.8509 46.4767 54.7055 47.8442 56.073C49.2116 57.4404 51.0663 58.2087 53.0002 58.2087C54.934 58.2087 56.7887 57.4404 58.1562 56.073C59.5236 54.7055 60.2918 52.8509 60.2918 50.917C60.2918 48.9831 59.5236 47.1285 58.1562 45.761C56.7887 44.3935 54.934 43.6253 53.0002 43.6253ZM40.5002 50.917C40.5002 47.6018 41.8171 44.4224 44.1613 42.0782C46.5055 39.7339 49.685 38.417 53.0002 38.417C56.3154 38.417 59.4948 39.7339 61.839 42.0782C64.1832 44.4224 65.5002 47.6018 65.5002 50.917C65.5002 54.2322 64.1832 57.4116 61.839 59.7558C59.4948 62.1 56.3154 63.417 53.0002 63.417C49.685 63.417 46.5055 62.1 44.1613 59.7558C41.8171 57.4116 40.5002 54.2322 40.5002 50.917ZM30.0835 74.7628C30.0835 72.8588 30.8399 71.0327 32.1862 69.6864C33.5326 68.34 35.3586 67.5837 37.2627 67.5837H68.7377C70.6417 67.5837 72.4677 68.34 73.8141 69.6864C75.1604 71.0327 75.9168 72.8588 75.9168 74.7628V75.6607C75.9168 76.4816 75.9168 81.2087 72.9606 85.7857C69.871 90.5691 63.9022 94.667 53.0002 94.667C42.0981 94.667 36.1293 90.5691 33.0397 85.7857C30.0835 81.2087 30.0835 76.4795 30.0835 75.6607V74.7628ZM37.2627 72.792C36.74 72.792 36.2387 72.9996 35.8691 73.3692C35.4995 73.7388 35.2918 74.2401 35.2918 74.7628V75.6566C35.2918 76.2191 35.2981 79.6837 37.4147 82.9587C39.4022 86.0378 43.5897 89.4587 53.0002 89.4587C62.4106 89.4587 66.5981 86.0378 68.5856 82.9587C70.7022 79.6837 70.7085 76.2191 70.7085 75.6566V74.7628C70.7085 74.2401 70.5009 73.7388 70.1313 73.3692C69.7616 72.9996 69.2604 72.792 68.7377 72.792H37.2627Z" fill="#069A8E"/>
<path d="M23.9585 22.917C23.9585 20.9831 24.7267 19.1285 26.0942 17.761C27.4616 16.3936 29.3163 15.6253 31.2502 15.6253C33.184 15.6253 35.0387 16.3936 36.4062 17.761C37.7736 19.1285 38.5418 20.9831 38.5418 22.917C38.5418 24.8509 37.7736 26.7055 36.4062 28.073C35.0387 29.4404 33.184 30.2087 31.2502 30.2087C29.3163 30.2087 27.4616 29.4404 26.0942 28.073C24.7267 26.7055 23.9585 24.8509 23.9585 22.917ZM31.2502 10.417C29.6086 10.417 27.9832 10.7403 26.4666 11.3685C24.95 11.9967 23.5721 12.9174 22.4113 14.0782C21.2506 15.2389 20.3299 16.6169 19.7017 18.1334C19.0735 19.65 18.7502 21.2755 18.7502 22.917C18.7502 24.5585 19.0735 26.184 19.7017 27.7005C20.3299 29.2171 21.2506 30.5951 22.4113 31.7558C23.5721 32.9166 24.95 33.8373 26.4666 34.4655C27.9832 35.0937 29.6086 35.417 31.2502 35.417C34.5654 35.417 37.7448 34.1 40.089 31.7558C42.4332 29.4116 43.7502 26.2322 43.7502 22.917C43.7502 19.6018 42.4332 16.4224 40.089 14.0782C37.7448 11.734 34.5654 10.417 31.2502 10.417ZM61.4585 22.917C61.4585 20.9831 62.2267 19.1285 63.5942 17.761C64.9616 16.3936 66.8163 15.6253 68.7502 15.6253C70.684 15.6253 72.5387 16.3936 73.9061 17.761C75.2736 19.1285 76.0418 20.9831 76.0418 22.917C76.0418 24.8509 75.2736 26.7055 73.9061 28.073C72.5387 29.4404 70.684 30.2087 68.7502 30.2087C66.8163 30.2087 64.9616 29.4404 63.5942 28.073C62.2267 26.7055 61.4585 24.8509 61.4585 22.917ZM68.7502 10.417C67.1086 10.417 65.4832 10.7403 63.9666 11.3685C62.45 11.9967 61.0721 12.9174 59.9113 14.0782C58.7506 15.2389 57.8298 16.6169 57.2017 18.1334C56.5735 19.65 56.2502 21.2755 56.2502 22.917C56.2502 24.5585 56.5735 26.184 57.2017 27.7005C57.8298 29.2171 58.7506 30.5951 59.9113 31.7558C61.0721 32.9166 62.45 33.8373 63.9666 34.4655C65.4832 35.0937 67.1086 35.417 68.7502 35.417C72.0654 35.417 75.2448 34.1 77.589 31.7558C79.9332 29.4116 81.2502 26.2322 81.2502 22.917C81.2502 19.6018 79.9332 16.4224 77.589 14.0782C75.2448 11.734 72.0654 10.417 68.7502 10.417ZM8.3335 46.7628C8.3335 45.82 8.51919 44.8865 8.87998 44.0155C9.24076 43.1445 9.76958 42.353 10.4362 41.6864C11.1029 41.0197 11.8943 40.4909 12.7653 40.1301C13.6363 39.7694 14.5699 39.5837 15.5127 39.5837H35.5627C34.628 41.1982 33.9729 42.9591 33.6252 44.792H15.5127C15.2538 44.792 14.9976 44.843 14.7585 44.942C14.5193 45.0411 14.3021 45.1862 14.1191 45.3692C13.9361 45.5522 13.7909 45.7695 13.6919 46.0086C13.5928 46.2477 13.5418 46.504 13.5418 46.7628V47.6566C13.5418 48.2191 13.5481 51.6837 15.6647 54.9587C17.5314 57.8503 21.3377 61.042 29.5897 61.4212C27.4403 62.396 25.6465 64.0142 24.4564 66.0524C17.7439 64.7357 13.6647 61.4628 11.2897 57.7857C8.3335 53.2087 8.3335 48.4795 8.3335 47.6607V46.7649V46.7628ZM70.4106 61.4212C72.5601 62.396 74.3538 64.0142 75.5439 66.0524C82.2564 64.7357 86.3356 61.4628 88.7106 57.7857C91.6668 53.2087 91.6668 48.4795 91.6668 47.6607V46.7649C91.6671 45.822 91.4816 44.8882 91.1209 44.0169C90.7603 43.1457 90.2315 42.354 89.5648 41.6871C88.8982 41.0203 88.1066 40.4913 87.2355 40.1303C86.3643 39.7694 85.4306 39.5837 84.4877 39.5837H64.4377C65.3543 41.1732 66.021 42.9274 66.3752 44.792H84.4877C85.5752 44.792 86.4585 45.6753 86.4585 46.7628V47.6566C86.4585 48.2191 86.4522 51.6837 84.3356 54.9587C82.4689 57.8503 78.6627 61.042 70.4106 61.4212ZM50.0002 40.6253C48.0663 40.6253 46.2116 41.3935 44.8442 42.761C43.4767 44.1285 42.7085 45.9831 42.7085 47.917C42.7085 49.8509 43.4767 51.7055 44.8442 53.073C46.2116 54.4404 48.0663 55.2087 50.0002 55.2087C51.934 55.2087 53.7887 54.4404 55.1562 53.073C56.5236 51.7055 57.2918 49.8509 57.2918 47.917C57.2918 45.9831 56.5236 44.1285 55.1562 42.761C53.7887 41.3935 51.934 40.6253 50.0002 40.6253ZM37.5002 47.917C37.5002 44.6018 38.8171 41.4224 41.1613 39.0782C43.5055 36.7339 46.685 35.417 50.0002 35.417C53.3154 35.417 56.4948 36.7339 58.839 39.0782C61.1832 41.4224 62.5002 44.6018 62.5002 47.917C62.5002 51.2322 61.1832 54.4116 58.839 56.7558C56.4948 59.1 53.3154 60.417 50.0002 60.417C46.685 60.417 43.5055 59.1 41.1613 56.7558C38.8171 54.4116 37.5002 51.2322 37.5002 47.917ZM27.0835 71.7628C27.0835 69.8588 27.8399 68.0327 29.1862 66.6864C30.5326 65.34 32.3586 64.5837 34.2627 64.5837H65.7377C67.6417 64.5837 69.4677 65.34 70.8141 66.6864C72.1604 68.0327 72.9168 69.8588 72.9168 71.7628V72.6607C72.9168 73.4816 72.9168 78.2087 69.9606 82.7857C66.871 87.5691 60.9022 91.667 50.0002 91.667C39.0981 91.667 33.1293 87.5691 30.0397 82.7857C27.0835 78.2087 27.0835 73.4795 27.0835 72.6607V71.7628ZM34.2627 69.792C33.74 69.792 33.2387 69.9996 32.8691 70.3692C32.4995 70.7388 32.2918 71.2401 32.2918 71.7628V72.6566C32.2918 73.2191 32.2981 76.6837 34.4147 79.9587C36.4022 83.0378 40.5897 86.4587 50.0002 86.4587C59.4106 86.4587 63.5981 83.0378 65.5856 79.9587C67.7022 76.6837 67.7085 73.2191 67.7085 72.6566V71.7628C67.7085 71.2401 67.5009 70.7388 67.1313 70.3692C66.7616 69.9996 66.2604 69.792 65.7377 69.792H34.2627Z" fill="#000201"/>
</svg>
