<svg width="100" height="100" viewBox="0 0 100 100" fill="none" xmlns="http://www.w3.org/2000/svg">
<path d="M64.2668 17.3419C65.0627 18.2836 65.5002 19.4753 65.5002 20.7086V85.3003C65.5004 86.2939 65.2163 87.2668 64.6816 88.1043C64.1469 88.9417 63.3838 89.6088 62.4823 90.0266C61.5808 90.4445 60.5786 90.5958 59.594 90.4627C58.6093 90.3296 57.6833 89.9175 56.9252 89.2753L36.2293 71.7503H20.7085C18.2221 71.7503 15.8375 70.7626 14.0794 69.0044C12.3212 67.2462 11.3335 64.8617 11.3335 62.3753V43.6253C11.3335 41.1389 12.3212 38.7543 14.0794 36.9962C15.8375 35.238 18.2221 34.2503 20.7085 34.2503H36.2293L56.9293 16.7336C57.9838 15.8423 59.349 15.4061 60.7249 15.521C62.1008 15.6358 63.3748 16.2923 64.2668 17.3461V17.3419ZM59.2502 22.9586L38.521 40.5003H20.7085C19.8797 40.5003 19.0848 40.8295 18.4988 41.4156C17.9127 42.0016 17.5835 42.7965 17.5835 43.6253V62.3753C17.5835 64.1044 18.9835 65.5003 20.7085 65.5003H38.521L59.2502 83.0544V22.9586ZM74.2668 39.0044C74.9742 38.5741 75.8235 38.442 76.6282 38.6373C77.4328 38.8326 78.1271 39.3393 78.5585 40.0461C80.9502 43.9628 82.1502 48.3461 82.1502 53.1294C82.1502 57.9169 80.9502 62.3003 78.5585 66.2169C78.3507 66.5791 78.0725 66.8959 77.7403 67.1487C77.4081 67.4015 77.0286 67.5852 76.6242 67.6889C76.2198 67.7926 75.7987 67.8142 75.3858 67.7525C74.9729 67.6908 74.5766 67.5469 74.2202 67.3295C73.8638 67.112 73.5546 66.8254 73.3109 66.4865C73.0671 66.1475 72.8938 65.7632 72.801 65.3562C72.7083 64.9491 72.698 64.5276 72.7708 64.1165C72.8437 63.7055 72.9982 63.3132 73.2252 62.9628C75.0085 60.0378 75.9002 56.7836 75.9002 53.1294C75.9002 49.4794 75.0085 46.2253 73.2252 43.3003C72.7948 42.5929 72.6627 41.7436 72.8581 40.9389C73.0534 40.1343 73.56 39.44 74.2668 39.0086V39.0044Z" fill="#069A8E"/>
<path d="M61.2668 14.3419C62.0627 15.2836 62.5002 16.4753 62.5002 17.7086V82.3003C62.5004 83.2939 62.2163 84.2668 61.6816 85.1043C61.1469 85.9417 60.3838 86.6088 59.4823 87.0266C58.5808 87.4445 57.5786 87.5958 56.594 87.4627C55.6093 87.3296 54.6833 86.9175 53.9252 86.2753L33.2293 68.7503H17.7085C15.2221 68.7503 12.8375 67.7626 11.0794 66.0044C9.32122 64.2462 8.3335 61.8617 8.3335 59.3753V40.6253C8.3335 38.1389 9.32122 35.7543 11.0794 33.9962C12.8375 32.238 15.2221 31.2503 17.7085 31.2503H33.2293L53.9293 13.7336C54.9838 12.8423 56.349 12.4061 57.7249 12.521C59.1008 12.6358 60.3748 13.2923 61.2668 14.3461V14.3419ZM56.2502 19.9586L35.521 37.5003H17.7085C16.8797 37.5003 16.0848 37.8295 15.4988 38.4156C14.9127 39.0016 14.5835 39.7965 14.5835 40.6253V59.3753C14.5835 61.1044 15.9835 62.5003 17.7085 62.5003H35.521L56.2502 80.0544V19.9586ZM71.2668 36.0044C71.9742 35.5741 72.8235 35.442 73.6282 35.6373C74.4328 35.8326 75.1271 36.3393 75.5585 37.0461C77.9502 40.9628 79.1502 45.3461 79.1502 50.1294C79.1502 54.9169 77.9502 59.3003 75.5585 63.2169C75.3507 63.5791 75.0725 63.8959 74.7403 64.1487C74.4081 64.4015 74.0286 64.5852 73.6242 64.6889C73.2198 64.7926 72.7987 64.8142 72.3858 64.7525C71.9729 64.6908 71.5766 64.5469 71.2202 64.3295C70.8638 64.112 70.5546 63.8254 70.3109 63.4865C70.0671 63.1475 69.8938 62.7632 69.801 62.3562C69.7083 61.9491 69.698 61.5276 69.7708 61.1165C69.8437 60.7055 69.9982 60.3132 70.2252 59.9628C72.0085 57.0378 72.9002 53.7836 72.9002 50.1294C72.9002 46.4794 72.0085 43.2253 70.2252 40.3003C69.7948 39.5929 69.6627 38.7436 69.8581 37.9389C70.0534 37.1343 70.56 36.44 71.2668 36.0086V36.0044Z" fill="#000201"/>
</svg>
