<svg width="100" height="100" viewBox="0 0 100 100" fill="none" xmlns="http://www.w3.org/2000/svg">
<path d="M52.5 63.4531H52.7188C57.4063 63.5781 61.1563 67.3906 61.1563 72.0781C61.1563 76.0781 58.4375 79.4219 54.75 80.4219V83.9219C54.75 85.1719 53.75 86.1719 52.5 86.1719C51.25 86.1719 50.25 85.1719 50.25 83.9219V80.4219C48.4138 79.9282 46.7914 78.8434 45.6334 77.3352C44.4755 75.8271 43.8465 73.9795 43.8438 72.0781C43.8438 70.8281 44.8438 69.8281 46.0938 69.8281C47.3438 69.8281 48.3438 70.8281 48.3438 72.0781C48.3438 74.3906 50.1875 76.2344 52.4688 76.2344C54.75 76.2344 56.625 74.3594 56.625 72.0781C56.625 69.7969 54.75 67.9219 52.4688 67.9219H52.25C50.0019 67.8609 47.8662 66.9258 46.2966 65.3153C44.7269 63.7048 43.847 61.5458 43.8438 59.2969C43.8438 55.2969 46.5625 51.9531 50.25 50.9531V47.4531C50.25 46.2031 51.25 45.2031 52.5 45.2031C53.75 45.2031 54.75 46.2031 54.75 47.4531V50.9531C58.4375 51.9531 61.1563 55.2969 61.1563 59.2969C61.1563 60.5469 60.1562 61.5469 58.9062 61.5469C57.6562 61.5469 56.6563 60.5469 56.6563 59.2969C56.6563 57.0156 54.7813 55.1406 52.5 55.1406C50.2188 55.1406 48.3438 57.0156 48.3438 59.2969C48.3438 61.5781 50.2188 63.4531 52.5 63.4531Z" fill="#069A8E"/>
<path d="M35.9125 18.9376L44.6187 29.1251L43.6781 30.1751C25.7594 34.1938 12.375 50.197 12.375 69.3282C12.375 86.147 26.025 99.797 42.8438 99.797H62.125C78.9437 99.797 92.5938 86.1501 92.5938 69.3313C92.625 50.197 79.2406 34.1938 61.3219 30.1751C61.3947 29.5147 61.2754 28.8474 60.9781 28.2532L68.3844 19.7751L68.8625 19.0376C69.4208 17.8199 69.5636 16.4525 69.269 15.1456C68.9743 13.8388 68.2586 12.665 67.2317 11.8047C66.2049 10.9444 64.9238 10.4452 63.5856 10.384C62.2474 10.3227 60.9261 10.7028 59.825 11.4657L57.1906 8.34072C56.5997 7.67941 55.876 7.15004 55.0668 6.78712C54.2576 6.42419 53.381 6.23586 52.4941 6.23438C51.6072 6.23291 50.73 6.41833 49.9196 6.77856C49.1092 7.13879 48.3838 7.66575 47.7906 8.32509L45.0312 11.4063C43.933 10.6275 42.6087 10.2323 41.2632 10.2818C39.9177 10.3313 38.626 10.8227 37.5879 11.6801C36.5498 12.5375 35.8231 13.713 35.5203 15.0249C35.2174 16.3368 35.3553 17.7119 35.9125 18.9376ZM47.7844 23.2657L42.4844 17.1407C43.7157 17.734 45.1089 17.9025 46.4461 17.6198C47.7834 17.3371 48.9892 16.6191 49.875 15.5782L52.375 12.3345L55.15 15.622C56.0152 16.6282 57.1824 17.3278 58.4776 17.6167C59.7728 17.9056 61.1267 17.7682 62.3375 17.2251L57.0625 23.2657H47.7844ZM18.625 69.3282C18.625 50.6157 33.7875 35.4532 52.5 35.4532C71.2125 35.4532 86.375 50.6157 86.3438 69.322V69.3282C86.3413 75.7507 83.7889 81.9094 79.2475 86.4507C74.7061 90.9921 68.5475 93.5445 62.125 93.547H42.8438C36.4213 93.5445 30.2626 90.9921 25.7213 86.4507C21.1799 81.9094 18.6275 75.7507 18.625 69.3282Z" fill="#069A8E"/>
<path d="M49.5 60.4531H49.7188C54.4063 60.5781 58.1563 64.3906 58.1563 69.0781C58.1563 73.0781 55.4375 76.4219 51.75 77.4219V80.9219C51.75 82.1719 50.75 83.1719 49.5 83.1719C48.25 83.1719 47.25 82.1719 47.25 80.9219V77.4219C45.4138 76.9282 43.7914 75.8434 42.6334 74.3352C41.4755 72.8271 40.8465 70.9795 40.8438 69.0781C40.8438 67.8281 41.8438 66.8281 43.0938 66.8281C44.3438 66.8281 45.3438 67.8281 45.3438 69.0781C45.3438 71.3906 47.1875 73.2344 49.4688 73.2344C51.75 73.2344 53.625 71.3594 53.625 69.0781C53.625 66.7969 51.75 64.9219 49.4688 64.9219H49.25C47.0019 64.8609 44.8662 63.9258 43.2966 62.3153C41.7269 60.7048 40.847 58.5458 40.8438 56.2969C40.8438 52.2969 43.5625 48.9531 47.25 47.9531V44.4531C47.25 43.2031 48.25 42.2031 49.5 42.2031C50.75 42.2031 51.75 43.2031 51.75 44.4531V47.9531C55.4375 48.9531 58.1563 52.2969 58.1563 56.2969C58.1563 57.5469 57.1562 58.5469 55.9062 58.5469C54.6562 58.5469 53.6563 57.5469 53.6563 56.2969C53.6563 54.0156 51.7813 52.1406 49.5 52.1406C47.2188 52.1406 45.3438 54.0156 45.3438 56.2969C45.3438 58.5781 47.2188 60.4531 49.5 60.4531Z" fill="#000201"/>
<path d="M32.9125 15.9376L41.6187 26.1251L40.6781 27.1751C22.7594 31.1938 9.375 47.197 9.375 66.3282C9.375 83.147 23.025 96.797 39.8438 96.797H59.125C75.9437 96.797 89.5938 83.1501 89.5938 66.3313C89.625 47.197 76.2406 31.1938 58.3219 27.1751C58.3947 26.5147 58.2754 25.8474 57.9781 25.2532L65.3844 16.7751L65.8625 16.0376C66.4208 14.8199 66.5636 13.4525 66.269 12.1456C65.9743 10.8388 65.2586 9.66501 64.2317 8.80469C63.2049 7.94437 61.9238 7.4452 60.5856 7.38396C59.2474 7.32271 57.9261 7.70279 56.825 8.46572L54.1906 5.34072C53.5997 4.67941 52.876 4.15004 52.0668 3.78712C51.2576 3.42419 50.381 3.23586 49.4941 3.23438C48.6072 3.23291 47.73 3.41833 46.9196 3.77856C46.1092 4.13879 45.3838 4.66575 44.7906 5.32509L42.0312 8.40634C40.933 7.62754 39.6087 7.23232 38.2632 7.28181C36.9177 7.3313 35.626 7.82274 34.5879 8.68011C33.5498 9.53749 32.8231 10.713 32.5203 12.0249C32.2174 13.3368 32.3553 14.7119 32.9125 15.9376ZM44.7844 20.2657L39.4844 14.1407C40.7157 14.734 42.1089 14.9025 43.4461 14.6198C44.7834 14.3371 45.9892 13.6191 46.875 12.5782L49.375 9.33447L52.15 12.622C53.0152 13.6282 54.1824 14.3278 55.4776 14.6167C56.7728 14.9056 58.1267 14.7682 59.3375 14.2251L54.0625 20.2657H44.7844ZM15.625 66.3282C15.625 47.6157 30.7875 32.4532 49.5 32.4532C68.2125 32.4532 83.375 47.6157 83.3438 66.322V66.3282C83.3413 72.7507 80.7889 78.9094 76.2475 83.4507C71.7061 87.9921 65.5475 90.5445 59.125 90.547H39.8438C33.4213 90.5445 27.2626 87.9921 22.7213 83.4507C18.1799 78.9094 15.6275 72.7507 15.625 66.3282Z" fill="#000201"/>
</svg>
