<svg width="100" height="100" viewBox="0 0 100 100" fill="none" xmlns="http://www.w3.org/2000/svg">
<path d="M44.6665 28.833C44.6665 20.9163 39.6665 13.833 32.1665 11.333V26.7497H19.6665V11.333C12.1665 13.833 7.1665 20.9163 7.1665 28.833C7.1665 36.7497 12.1665 43.833 19.6665 46.333V92.1663C19.6665 93.833 20.4998 94.6663 21.7498 94.6663H30.0832C31.3332 94.6663 32.1665 93.833 32.1665 92.583V46.7497C39.6665 44.2497 44.6665 37.1663 44.6665 28.833ZM69.6665 36.333C53.4165 36.7497 40.4998 49.6663 40.4998 65.4997C40.4998 81.7497 53.4165 94.6663 69.6665 94.6663C85.9165 94.6663 98.8332 81.7497 98.8332 65.4997C98.8332 49.2497 85.9165 36.333 69.6665 36.333ZM69.6665 86.333C57.9998 86.333 48.8332 77.1663 48.8332 65.4997C48.8332 53.833 57.9998 44.6663 69.6665 44.6663C81.3332 44.6663 90.4998 53.833 90.4998 65.4997C90.4998 77.1663 81.3332 86.333 69.6665 86.333ZM65.4998 48.833V69.6663L80.4998 78.833L83.8332 73.833L71.7498 66.7497V48.833H65.4998Z" fill="#069A8E"/>
<path d="M41.6665 25.833C41.6665 17.9163 36.6665 10.833 29.1665 8.33301V23.7497H16.6665V8.33301C9.1665 10.833 4.1665 17.9163 4.1665 25.833C4.1665 33.7497 9.1665 40.833 16.6665 43.333V89.1663C16.6665 90.833 17.4998 91.6663 18.7498 91.6663H27.0832C28.3332 91.6663 29.1665 90.833 29.1665 89.583V43.7497C36.6665 41.2497 41.6665 34.1663 41.6665 25.833ZM66.6665 33.333C50.4165 33.7497 37.4998 46.6663 37.4998 62.4997C37.4998 78.7497 50.4165 91.6663 66.6665 91.6663C82.9165 91.6663 95.8332 78.7497 95.8332 62.4997C95.8332 46.2497 82.9165 33.333 66.6665 33.333ZM66.6665 83.333C54.9998 83.333 45.8332 74.1663 45.8332 62.4997C45.8332 50.833 54.9998 41.6663 66.6665 41.6663C78.3332 41.6663 87.4998 50.833 87.4998 62.4997C87.4998 74.1663 78.3332 83.333 66.6665 83.333ZM62.4998 45.833V66.6663L77.4998 75.833L80.8332 70.833L68.7498 63.7497V45.833H62.4998Z" fill="#000201"/>
</svg>
