<svg width="100" height="100" viewBox="0 0 100 100" fill="none" xmlns="http://www.w3.org/2000/svg">
<g clip-path="url(#clip0_545_4555)">
<path d="M5.5 67.5839L13.8335 75.9173M13.8335 75.9173L22.1669 67.5839M13.8335 75.9173V34.25" stroke="#069A8E" stroke-width="5" stroke-linecap="round" stroke-linejoin="round"/>
<path d="M36.75 65.5003V67.5837H38.8333H49.25V71.7503H38.8333C37.1757 71.7503 35.586 71.0918 34.4139 69.9197C33.2418 68.7476 32.5833 67.1579 32.5833 65.5003V40.5003C32.5833 38.8427 33.2418 37.253 34.4139 36.0809C35.586 34.9088 37.1757 34.2503 38.8333 34.2503H49.25V38.417H38.8333H36.75V40.5003V65.5003ZM63.8333 38.417H61.75V40.5003V65.5003V67.5837H63.8333H72.1667H74.25V65.5003V40.5003V38.417H72.1667H63.8333ZM99.25 53.0003V50.917H97.1667H86.75V48.8337H97.1667C98.2717 48.8337 99.3315 49.2726 100.113 50.054C100.894 50.8354 101.333 51.8953 101.333 53.0003V59.2503C101.333 60.3554 100.894 61.4152 100.113 62.1966C99.3315 62.978 98.2717 63.417 97.1667 63.417H90.9167H88.8333V65.5003V71.7503V73.8337H90.9167H101.333V75.917H86.75V65.5003C86.75 64.3953 87.189 63.3354 87.9704 62.554C88.7518 61.7726 89.8116 61.3337 90.9167 61.3337H97.1667H99.25V59.2503V53.0003ZM59.4139 36.0809C60.586 34.9088 62.1757 34.2503 63.8333 34.2503H72.1667C73.8243 34.2503 75.414 34.9088 76.5861 36.0809C77.7582 37.253 78.4167 38.8427 78.4167 40.5003V65.5003C78.4167 67.1579 77.7582 68.7476 76.5861 69.9197C75.414 71.0918 73.8243 71.7503 72.1667 71.7503H63.8333C62.1757 71.7503 60.586 71.0918 59.4139 69.9197C58.2418 68.7476 57.5833 67.1579 57.5833 65.5003V40.5003C57.5833 38.8427 58.2418 37.253 59.4139 36.0809Z" fill="#000201" stroke="#069A8E" stroke-width="4.16667"/>
<path d="M2.5 64.5839L10.8335 72.9173L19.1669 64.5839M10.8335 31.25V72.9173V31.25Z" fill="#000201"/>
<path d="M2.5 64.5839L10.8335 72.9173M10.8335 72.9173L19.1669 64.5839M10.8335 72.9173V31.25" stroke="#000201" stroke-width="5" stroke-linecap="round" stroke-linejoin="round"/>
<path d="M33.75 62.5003V64.5837H35.8333H46.25V68.7503H35.8333C34.1757 68.7503 32.586 68.0918 31.4139 66.9197C30.2418 65.7476 29.5833 64.1579 29.5833 62.5003V37.5003C29.5833 35.8427 30.2418 34.253 31.4139 33.0809C32.586 31.9088 34.1757 31.2503 35.8333 31.2503H46.25V35.417H35.8333H33.75V37.5003V62.5003ZM60.8333 35.417H58.75V37.5003V62.5003V64.5837H60.8333H69.1667H71.25V62.5003V37.5003V35.417H69.1667H60.8333ZM96.25 50.0003V47.917H94.1667H83.75V45.8337H94.1667C95.2717 45.8337 96.3315 46.2726 97.1129 47.054C97.8943 47.8354 98.3333 48.8953 98.3333 50.0003V56.2503C98.3333 57.3554 97.8943 58.4152 97.1129 59.1966C96.3315 59.978 95.2717 60.417 94.1667 60.417H87.9167H85.8333V62.5003V68.7503V70.8337H87.9167H98.3333V72.917H83.75V62.5003C83.75 61.3953 84.189 60.3354 84.9704 59.554C85.7518 58.7726 86.8116 58.3337 87.9167 58.3337H94.1667H96.25V56.2503V50.0003ZM56.4139 33.0809C57.586 31.9088 59.1757 31.2503 60.8333 31.2503H69.1667C70.8243 31.2503 72.414 31.9088 73.5861 33.0809C74.7582 34.253 75.4167 35.8427 75.4167 37.5003V62.5003C75.4167 64.1579 74.7582 65.7476 73.5861 66.9197C72.414 68.0918 70.8243 68.7503 69.1667 68.7503H60.8333C59.1757 68.7503 57.586 68.0918 56.4139 66.9197C55.2418 65.7476 54.5833 64.1579 54.5833 62.5003V37.5003C54.5833 35.8427 55.2418 34.253 56.4139 33.0809Z" fill="#000201" stroke="#000201" stroke-width="4.16667"/>
</g>
<defs>
<clipPath id="clip0_545_4555">
<rect width="100" height="100" fill="white"/>
</clipPath>
</defs>
</svg>
