<svg width="100" height="100" viewBox="0 0 100 100" fill="none" xmlns="http://www.w3.org/2000/svg">
<path d="M92.8438 85.25C92.8438 85.8716 92.5968 86.4677 92.1573 86.9073C91.7177 87.3468 91.1216 87.5938 90.5 87.5938H15.5C14.8784 87.5938 14.2823 87.3468 13.8427 86.9073C13.4032 86.4677 13.1562 85.8716 13.1562 85.25V22.75C13.1562 22.1284 13.4032 21.5323 13.8427 21.0927C14.2823 20.6532 14.8784 20.4063 15.5 20.4062C16.1216 20.4063 16.7177 20.6532 17.1573 21.0927C17.5968 21.5323 17.8438 22.1284 17.8438 22.75V28.0312L40.5 50.6875L51.3438 39.8477C51.7832 39.4087 52.3789 39.1622 53 39.1622C53.6211 39.1622 54.2168 39.4087 54.6563 39.8477L78.7812 63.9688V54C78.7812 53.3784 79.0282 52.7823 79.4677 52.3427C79.9073 51.9032 80.5034 51.6562 81.125 51.6562C81.7466 51.6562 82.3427 51.9032 82.7823 52.3427C83.2218 52.7823 83.4688 53.3784 83.4688 54V69.625C83.4686 69.7693 83.4542 69.9132 83.4258 70.0547V70.0781C83.3955 70.2176 83.355 70.3547 83.3047 70.4883V70.5156C83.2491 70.6518 83.1811 70.7826 83.1016 70.9062V70.9297C82.9268 71.1884 82.704 71.4112 82.4453 71.5859H82.4219C82.2982 71.6655 82.1674 71.7335 82.0312 71.7891H82.0039C81.8703 71.8394 81.7332 71.8799 81.5938 71.9102H81.5703C81.4288 71.9386 81.2849 71.953 81.1406 71.9531H65.5C64.8784 71.9531 64.2823 71.7062 63.8427 71.2667C63.4032 70.8271 63.1562 70.231 63.1562 69.6094C63.1562 68.9878 63.4032 68.3916 63.8427 67.9521C64.2823 67.5126 64.8784 67.2656 65.5 67.2656H75.4688L53 44.8164L42.1562 55.6563C41.7168 56.0952 41.1211 56.3417 40.5 56.3417C39.8789 56.3417 39.2832 56.0952 38.8438 55.6563L17.8438 34.6563V82.9062H90.5C91.1216 82.9062 91.7177 83.1532 92.1573 83.5927C92.5968 84.0323 92.8438 84.6284 92.8438 85.25Z" fill="#069A8E"/>
<path d="M89.8438 81.25C89.8438 81.8716 89.5968 82.4677 89.1573 82.9073C88.7177 83.3468 88.1216 83.5938 87.5 83.5938H12.5C11.8784 83.5938 11.2823 83.3468 10.8427 82.9073C10.4032 82.4677 10.1562 81.8716 10.1562 81.25V18.75C10.1562 18.1284 10.4032 17.5323 10.8427 17.0927C11.2823 16.6532 11.8784 16.4063 12.5 16.4062C13.1216 16.4063 13.7177 16.6532 14.1573 17.0927C14.5968 17.5323 14.8438 18.1284 14.8438 18.75V24.0312L37.5 46.6875L48.3438 35.8477C48.7832 35.4087 49.3789 35.1622 50 35.1622C50.6211 35.1622 51.2168 35.4087 51.6563 35.8477L75.7812 59.9688V50C75.7812 49.3784 76.0282 48.7823 76.4677 48.3427C76.9073 47.9032 77.5034 47.6562 78.125 47.6562C78.7466 47.6562 79.3427 47.9032 79.7823 48.3427C80.2218 48.7823 80.4688 49.3784 80.4688 50V65.625C80.4686 65.7693 80.4542 65.9132 80.4258 66.0547V66.0781C80.3955 66.2176 80.355 66.3547 80.3047 66.4883V66.5156C80.2491 66.6518 80.1811 66.7826 80.1016 66.9062V66.9297C79.9268 67.1884 79.704 67.4112 79.4453 67.5859H79.4219C79.2982 67.6655 79.1674 67.7335 79.0312 67.7891H79.0039C78.8703 67.8394 78.7332 67.8799 78.5938 67.9102H78.5703C78.4288 67.9386 78.2849 67.953 78.1406 67.9531H62.5C61.8784 67.9531 61.2823 67.7062 60.8427 67.2667C60.4032 66.8271 60.1562 66.231 60.1562 65.6094C60.1562 64.9878 60.4032 64.3916 60.8427 63.9521C61.2823 63.5126 61.8784 63.2656 62.5 63.2656H72.4688L50 40.8164L39.1562 51.6563C38.7168 52.0952 38.1211 52.3417 37.5 52.3417C36.8789 52.3417 36.2832 52.0952 35.8438 51.6563L14.8438 30.6563V78.9062H87.5C88.1216 78.9062 88.7177 79.1532 89.1573 79.5927C89.5968 80.0323 89.8438 80.6284 89.8438 81.25Z" fill="#000201"/>
</svg>
