<svg width="100" height="100" viewBox="0 0 100 100" fill="none" xmlns="http://www.w3.org/2000/svg">
<g clip-path="url(#clip0_545_4597)">
<path d="M69.0716 99.4281H40.5001L36.9287 70.8566H72.643L69.0716 99.4281ZM89.643 46.3566C88.1829 47.6276 86.4797 48.5885 84.6368 49.1811C82.7939 49.7737 80.8499 49.9856 78.9226 49.8038C76.9954 49.6221 75.1252 49.0506 73.4255 48.124C71.7259 47.1974 70.2324 45.935 69.0355 44.4135C67.8387 42.8921 66.9636 41.1432 66.4633 39.2732C65.963 37.4032 65.848 35.451 66.1253 33.5351C66.4025 31.6193 67.0662 29.7798 68.0761 28.1283C69.0861 26.4768 70.4211 25.0478 72.0001 23.9281C78.143 19.0709 97.643 21.9281 97.643 21.9281C97.643 21.9281 95.8573 41.4995 89.643 46.3566Z" stroke="#069A8E" stroke-width="5" stroke-linecap="round" stroke-linejoin="round"/>
<path d="M69.0715 43.2854C64.9418 46.6692 61.5451 50.8592 59.0889 55.5997C56.6327 60.3402 55.1685 65.5315 54.7858 70.8568C54.7858 49.4282 44.0715 35.1425 26.2144 24.4282" stroke="#069A8E" stroke-width="5" stroke-linecap="round" stroke-linejoin="round"/>
<path d="M14.9285 38.7138C18.4257 41.7175 22.9284 43.2894 27.5352 43.1148C32.1419 42.9402 36.5128 41.032 39.7726 37.7722C43.0324 34.5124 44.9406 30.1416 45.1152 25.5348C45.2898 20.928 43.7179 16.4253 40.7142 12.9281C33.5713 5.85667 8.35706 6.57096 8.35706 6.57096C8.35706 6.57096 7.78563 31.571 14.9285 38.7138Z" stroke="#069A8E" stroke-width="5" stroke-linecap="round" stroke-linejoin="round"/>
<path d="M66.0716 96.4281H37.5001L33.9287 67.8566H69.643L66.0716 96.4281ZM86.643 43.3566C85.1829 44.6276 83.4797 45.5885 81.6368 46.1811C79.7939 46.7737 77.8499 46.9856 75.9226 46.8038C73.9954 46.6221 72.1252 46.0506 70.4255 45.124C68.7259 44.1974 67.2324 42.935 66.0355 41.4135C64.8387 39.8921 63.9636 38.1432 63.4633 36.2732C62.963 34.4032 62.848 32.451 63.1253 30.5351C63.4025 28.6193 64.0662 26.7798 65.0761 25.1283C66.0861 23.4768 67.4211 22.0478 69.0001 20.9281C75.143 16.0709 94.643 18.9281 94.643 18.9281C94.643 18.9281 92.8573 38.4995 86.643 43.3566Z" stroke="#000201" stroke-width="5" stroke-linecap="round" stroke-linejoin="round"/>
<path d="M66.0715 40.2854C61.9418 43.6692 58.5451 47.8592 56.0889 52.5997C53.6327 57.3402 52.1685 62.5315 51.7858 67.8568C51.7858 46.4282 41.0715 32.1425 23.2144 21.4282" stroke="#000201" stroke-width="5" stroke-linecap="round" stroke-linejoin="round"/>
<path d="M11.9285 35.7138C15.4257 38.7175 19.9284 40.2894 24.5352 40.1148C29.1419 39.9402 33.5128 38.032 36.7726 34.7722C40.0324 31.5124 41.9406 27.1416 42.1152 22.5348C42.2898 17.928 40.7179 13.4253 37.7142 9.9281C30.5713 2.85667 5.35706 3.57096 5.35706 3.57096C5.35706 3.57096 4.78563 28.571 11.9285 35.7138Z" stroke="#000201" stroke-width="5" stroke-linecap="round" stroke-linejoin="round"/>
</g>
<defs>
<clipPath id="clip0_545_4597">
<rect width="100" height="100" fill="white"/>
</clipPath>
</defs>
</svg>
