<svg width="100" height="100" viewBox="0 0 100 100" fill="none" xmlns="http://www.w3.org/2000/svg">
<path d="M19.6665 36.3337V28.0003C19.6665 25.7902 20.5445 23.6706 22.1073 22.1078C23.6701 20.545 25.7897 19.667 27.9998 19.667H36.3332M19.6665 69.667V78.0003C19.6665 80.2105 20.5445 82.3301 22.1073 83.8929C23.6701 85.4557 25.7897 86.3337 27.9998 86.3337H36.3332M69.6665 19.667H77.9998C80.21 19.667 82.3296 20.545 83.8924 22.1078C85.4552 23.6706 86.3332 25.7902 86.3332 28.0003V36.3337M69.6665 86.3337H77.9998C80.21 86.3337 82.3296 85.4557 83.8924 83.8929C85.4552 82.3301 86.3332 80.2105 86.3332 78.0003V69.667M38.8457 43.042C39.6369 42.2357 40.581 41.5952 41.6226 41.158C42.6643 40.7208 43.7826 40.4956 44.9123 40.4956C46.042 40.4956 47.1604 40.7208 48.202 41.158C49.2437 41.5952 50.1877 42.2357 50.979 43.042L52.9998 44.667L55.0832 43.017C55.8739 42.2196 56.8151 41.5871 57.8522 41.1564C58.8893 40.7257 60.0017 40.5054 61.1247 40.5081C62.2477 40.5108 63.3589 40.7365 64.394 41.1722C65.429 41.6079 66.3672 42.2449 67.154 43.0462C68.7646 44.6855 69.667 46.8918 69.667 49.1899C69.667 51.488 68.7646 53.6943 67.154 55.3337L52.9998 69.667L38.8457 55.3337C37.2339 53.6941 36.3307 51.487 36.3307 49.1878C36.3307 46.8887 37.2339 44.6815 38.8457 43.042Z" stroke="#069A8E" stroke-width="5" stroke-linecap="round" stroke-linejoin="round"/>
<path d="M16.6665 33.3337V25.0003C16.6665 22.7902 17.5445 20.6706 19.1073 19.1078C20.6701 17.545 22.7897 16.667 24.9998 16.667H33.3332M16.6665 66.667V75.0003C16.6665 77.2105 17.5445 79.3301 19.1073 80.8929C20.6701 82.4557 22.7897 83.3337 24.9998 83.3337H33.3332M66.6665 16.667H74.9998C77.21 16.667 79.3296 17.545 80.8924 19.1078C82.4552 20.6706 83.3332 22.7902 83.3332 25.0003V33.3337M66.6665 83.3337H74.9998C77.21 83.3337 79.3296 82.4557 80.8924 80.8929C82.4552 79.3301 83.3332 77.2105 83.3332 75.0003V66.667M35.8457 40.042C36.6369 39.2357 37.581 38.5952 38.6226 38.158C39.6643 37.7208 40.7826 37.4956 41.9123 37.4956C43.042 37.4956 44.1604 37.7208 45.202 38.158C46.2437 38.5952 47.1877 39.2357 47.979 40.042L49.9998 41.667L52.0832 40.017C52.8739 39.2196 53.8151 38.5871 54.8522 38.1564C55.8893 37.7257 57.0017 37.5054 58.1247 37.5081C59.2477 37.5108 60.3589 37.7365 61.394 38.1722C62.429 38.6079 63.3672 39.2449 64.154 40.0462C65.7646 41.6855 66.667 43.8918 66.667 46.1899C66.667 48.488 65.7646 50.6943 64.154 52.3337L49.9998 66.667L35.8457 52.3337C34.2339 50.6941 33.3307 48.487 33.3307 46.1878C33.3307 43.8887 34.2339 41.6815 35.8457 40.042Z" stroke="#000201" stroke-width="5" stroke-linecap="round" stroke-linejoin="round"/>
</svg>
