<svg width="100" height="100" viewBox="0 0 100 100" fill="none" xmlns="http://www.w3.org/2000/svg">
<path d="M64.4999 48.833V48.8747M23.5541 37.908C21.7266 36.5035 20.323 34.6209 19.4985 32.4686C18.674 30.3162 18.4607 27.9777 18.8821 25.7117C19.3035 23.4456 20.3432 21.3402 21.8864 19.6281C23.4296 17.9161 25.4161 16.664 27.6263 16.0103C29.8366 15.3566 32.1846 15.3268 34.4107 15.9241C36.6369 16.5214 38.6546 17.7226 40.2407 19.3949C41.8269 21.0672 42.9198 23.1455 43.3987 25.4002C43.8775 27.6548 43.7237 29.9979 42.9541 32.1705" stroke="#069A8E" stroke-width="5" stroke-linecap="round" stroke-linejoin="round"/>
<path d="M68.6666 19.6663V35.5121C73.8233 38.4959 77.7493 43.2181 79.7416 48.8329H85.3291C86.4341 48.8329 87.4939 49.2719 88.2753 50.0533C89.0567 50.8347 89.4957 51.8945 89.4957 52.9996V61.3329C89.4957 62.438 89.0567 63.4978 88.2753 64.2792C87.4939 65.0606 86.4341 65.4996 85.3291 65.4996H79.7374C78.3374 69.4579 75.9582 72.9996 72.8291 75.8038V84.2496C72.8291 85.9072 72.1706 87.4969 70.9985 88.669C69.8264 89.8411 68.2367 90.4996 66.5791 90.4996C64.9215 90.4996 63.3317 89.8411 62.1596 88.669C60.9875 87.4969 60.3291 85.9072 60.3291 84.2496V81.8204C58.9522 82.0511 57.5585 82.1667 56.1624 82.1663H39.4957C38.0997 82.1667 36.706 82.0511 35.3291 81.8204V84.2496C35.3291 85.9072 34.6706 87.4969 33.4985 88.669C32.3264 89.8411 30.7367 90.4996 29.0791 90.4996C27.4215 90.4996 25.8317 89.8411 24.6596 88.669C23.4875 87.4969 22.8291 85.9072 22.8291 84.2496V75.8038C19.0539 72.4286 16.3927 67.9866 15.1977 63.0657C14.0028 58.1448 14.3304 52.977 16.1372 48.2463C17.9439 43.5157 21.1447 39.4453 25.3159 36.5739C29.487 33.7025 34.4318 32.1654 39.4957 32.1663H49.9124L68.6624 19.6663H68.6666Z" stroke="#069A8E" stroke-width="5" stroke-linecap="round" stroke-linejoin="round"/>
<path d="M62.4999 45.833V45.8747M21.5541 34.908C19.7266 33.5035 18.323 31.6209 17.4985 29.4686C16.674 27.3162 16.4607 24.9777 16.8821 22.7117C17.3035 20.4456 18.3432 18.3402 19.8864 16.6281C21.4296 14.9161 23.4161 13.664 25.6263 13.0103C27.8366 12.3566 30.1846 12.3268 32.4107 12.9241C34.6369 13.5214 36.6546 14.7226 38.2407 16.3949C39.8269 18.0672 40.9198 20.1455 41.3987 22.4002C41.8775 24.6548 41.7237 26.9979 40.9541 29.1705" stroke="#000201" stroke-width="5" stroke-linecap="round" stroke-linejoin="round"/>
<path d="M66.6666 16.6663V32.5121C71.8233 35.4959 75.7493 40.2181 77.7416 45.8329H83.3291C84.4341 45.8329 85.4939 46.2719 86.2753 47.0533C87.0567 47.8347 87.4957 48.8945 87.4957 49.9996V58.3329C87.4957 59.438 87.0567 60.4978 86.2753 61.2792C85.4939 62.0606 84.4341 62.4996 83.3291 62.4996H77.7374C76.3374 66.4579 73.9582 69.9996 70.8291 72.8038V81.2496C70.8291 82.9072 70.1706 84.4969 68.9985 85.669C67.8264 86.8411 66.2367 87.4996 64.5791 87.4996C62.9215 87.4996 61.3317 86.8411 60.1596 85.669C58.9875 84.4969 58.3291 82.9072 58.3291 81.2496V78.8204C56.9522 79.0511 55.5585 79.1667 54.1624 79.1663H37.4957C36.0997 79.1667 34.706 79.0511 33.3291 78.8204V81.2496C33.3291 82.9072 32.6706 84.4969 31.4985 85.669C30.3264 86.8411 28.7367 87.4996 27.0791 87.4996C25.4215 87.4996 23.8317 86.8411 22.6596 85.669C21.4875 84.4969 20.8291 82.9072 20.8291 81.2496V72.8038C17.0539 69.4286 14.3927 64.9866 13.1977 60.0657C12.0028 55.1448 12.3304 49.977 14.1372 45.2463C15.9439 40.5157 19.1447 36.4453 23.3159 33.5739C27.487 30.7025 32.4318 29.1654 37.4957 29.1663H47.9124L66.6624 16.6663H66.6666Z" stroke="#000201" stroke-width="5" stroke-linecap="round" stroke-linejoin="round"/>
</svg>
